  0
SECTION
  2
HEADER
  9
$ACADVER
  1
AC1006
  9
$EXTMIN
 10
0.000000
 20
0.000000
 30
0.000000
  9
$EXTMAX
 10
450.000000
 20
450.000000
 30
0.000000
  0
ENDSEC
  0
SECTION
  2
ENTITIES
  0
POLYLINE
  8
0
 66
1
 70
1
  0
VERTEX
  8
0
 10
49.638457
 20
382.527338
 42
0.002117
  0
VERTEX
  8
0
 10
43.243637
 20
368.091854
 42
0.003449
  0
VERTEX
  8
0
 10
37.953571
 20
355.781945
 42
0.000578
  0
VERTEX
  8
0
 10
33.375976
 20
344.888879
 42
0.242132
  0
VERTEX
  8
0
 10
33.437964
 20
344.100377
 42
0.063673
  0
VERTEX
  8
0
 10
33.868996
 20
343.568173
 42
0.007391
  0
VERTEX
  8
0
 10
34.995647
 20
342.522600
 42
0.008789
  0
VERTEX
  8
0
 10
36.381794
 20
341.317289
 42
0.007075
  0
VERTEX
  8
0
 10
37.912500
 20
340.069301
 42
0.000000
  0
VERTEX
  8
0
 10
41.797247
 20
336.992525
 42
0.000000
  0
VERTEX
  8
0
 10
67.648623
 20
357.138776
 42
0.000007
  0
VERTEX
  8
0
 10
77.644046
 20
364.928554
 42
0.000012
  0
VERTEX
  8
0
 10
86.259050
 20
371.643056
 42
0.000003
  0
VERTEX
  8
0
 10
93.774144
 20
377.500649
 42
0.000408
  0
VERTEX
  8
0
 10
94.701335
 20
378.224569
 42
-0.780330
  0
VERTEX
  8
0
 10
95.068076
 20
377.939032
 42
-0.000880
  0
VERTEX
  8
0
 10
88.704681
 20
363.603785
 42
-0.003201
  0
VERTEX
  8
0
 10
81.138118
 20
346.926464
 42
-0.001938
  0
VERTEX
  8
0
 10
71.977490
 20
327.274996
 42
0.000000
  0
VERTEX
  8
0
 10
67.162730
 20
317.049992
 42
0.000000
  0
VERTEX
  8
0
 10
71.883016
 20
313.097945
 42
0.000000
  0
VERTEX
  8
0
 10
76.603302
 20
309.145898
 42
0.000000
  0
VERTEX
  8
0
 10
108.051651
 20
333.149882
 42
0.000626
  0
VERTEX
  8
0
 10
120.213389
 20
342.456840
 42
0.000965
  0
VERTEX
  8
0
 10
130.702672
 20
350.536983
 42
0.000294
  0
VERTEX
  8
0
 10
139.791513
 20
357.574882
 42
0.029675
  0
VERTEX
  8
0
 10
141.000000
 20
358.632290
 42
0.086983
  0
VERTEX
  8
0
 10
141.655455
 20
359.552136
 42
0.221662
  0
VERTEX
  8
0
 10
141.662902
 20
360.351684
 42
0.100663
  0
VERTEX
  8
0
 10
140.973487
 20
361.302005
 42
0.011906
  0
VERTEX
  8
0
 10
139.000000
 20
363.028456
 42
0.009182
  0
VERTEX
  8
0
 10
137.605673
 20
364.148075
 42
0.012693
  0
VERTEX
  8
0
 10
136.311830
 20
365.097014
 42
0.009295
  0
VERTEX
  8
0
 10
135.208637
 20
365.833805
 42
0.134230
  0
VERTEX
  8
0
 10
134.763676
 20
365.973099
 42
0.172941
  0
VERTEX
  8
0
 10
134.236981
 20
365.806718
 42
0.000371
  0
VERTEX
  8
0
 10
127.409942
 20
360.625221
 42
0.002441
  0
VERTEX
  8
0
 10
119.735576
 20
354.732307
 42
0.001506
  0
VERTEX
  8
0
 10
110.763676
 20
347.729782
 42
-0.000237
  0
VERTEX
  8
0
 10
101.580109
 20
340.524470
 42
-0.000316
  0
VERTEX
  8
0
 10
93.233405
 20
333.990665
 42
-0.000220
  0
VERTEX
  8
0
 10
86.226387
 20
328.517689
 42
-0.003260
  0
VERTEX
  8
0
 10
83.754299
 20
326.614372
 42
0.000000
  0
VERTEX
  8
0
 10
80.008598
 20
323.769180
 42
0.000000
  0
VERTEX
  8
0
 10
83.391167
 20
331.134590
 42
-0.000995
  0
VERTEX
  8
0
 10
85.352674
 20
335.383373
 42
-0.000174
  0
VERTEX
  8
0
 10
89.068982
 20
343.383981
 42
-0.000189
  0
VERTEX
  8
0
 10
93.435384
 20
352.766329
 42
-0.000169
  0
VERTEX
  8
0
 10
97.969909
 20
362.491728
 42
0.000000
  0
VERTEX
  8
0
 10
109.166083
 20
386.483456
 42
0.000000
  0
VERTEX
  8
0
 10
105.333041
 20
389.726851
 42
0.008626
  0
VERTEX
  8
0
 10
103.810874
 20
390.970440
 42
0.012152
  0
VERTEX
  8
0
 10
102.408843
 20
392.021869
 42
0.008427
  0
VERTEX
  8
0
 10
101.213397
 20
392.843764
 42
0.142279
  0
VERTEX
  8
0
 10
100.760892
 20
392.985123
 42
0.168664
  0
VERTEX
  8
0
 10
100.230182
 20
392.812745
 42
0.000291
  0
VERTEX
  8
0
 10
92.541184
 20
386.981810
 42
0.002135
  0
VERTEX
  8
0
 10
83.916701
 20
380.375289
 42
0.001314
  0
VERTEX
  8
0
 10
73.816803
 20
372.527423
 42
-0.001179
  0
VERTEX
  8
0
 10
63.747215
 20
364.698754
 42
-0.001962
  0
VERTEX
  8
0
 10
55.221950
 20
358.156250
 42
-0.000156
  0
VERTEX
  8
0
 10
47.570392
 20
352.335601
 42
-0.375093
  0
VERTEX
  8
0
 10
47.313660
 20
352.353007
 42
-0.311400
  0
VERTEX
  8
0
 10
47.262856
 20
352.629631
 42
-0.000144
  0
VERTEX
  8
0
 10
51.247556
 20
361.494786
 42
-0.001834
  0
VERTEX
  8
0
 10
55.735965
 20
371.375850
 42
-0.001107
  0
VERTEX
  8
0
 10
61.124344
 20
383.055262
 42
0.000000
  0
VERTEX
  8
0
 10
75.233189
 20
413.459356
 42
0.000000
  0
VERTEX
  8
0
 10
71.449985
 20
416.729678
 42
0.007538
  0
VERTEX
  8
0
 10
69.955525
 20
417.982676
 42
0.010934
  0
VERTEX
  8
0
 10
68.596259
 20
419.039343
 42
0.006776
  0
VERTEX
  8
0
 10
67.435347
 20
419.877589
 42
0.154161
  0
VERTEX
  8
0
 10
67.047760
 20
420.000000
 42
0.291640
  0
VERTEX
  8
0
 10
66.692428
 20
419.773476
 42
0.000200
  0
VERTEX
  8
0
 10
61.678431
 20
408.992405
 42
0.002129
  0
VERTEX
  8
0
 10
56.120830
 20
396.895385
 42
0.001289
  0
SEQEND
  0
POLYLINE
  8
0
 66
1
 70
1
  0
VERTEX
  8
0
 10
214.000000
 20
372.925408
 42
0.074238
  0
VERTEX
  8
0
 10
176.015070
 20
364.168001
 42
0.072472
  0
VERTEX
  8
0
 10
141.898664
 20
344.657508
 42
0.072441
  0
VERTEX
  8
0
 10
114.756381
 20
316.213795
 42
0.074068
  0
VERTEX
  8
0
 10
97.102094
 20
281.415287
 42
0.015149
  0
VERTEX
  8
0
 10
93.769310
 20
270.300918
 42
0.027155
  0
VERTEX
  8
0
 10
91.813823
 20
260.977277
 42
0.025805
  0
VERTEX
  8
0
 10
90.822592
 20
251.181015
 42
0.012257
  0
VERTEX
  8
0
 10
90.508924
 20
238.500000
 42
0.015240
  0
VERTEX
  8
0
 10
90.898907
 20
225.615958
 42
0.024553
  0
VERTEX
  8
0
 10
92.102308
 20
214.703454
 42
0.026068
  0
VERTEX
  8
0
 10
94.300399
 20
204.443748
 42
0.020427
  0
VERTEX
  8
0
 10
97.708578
 20
193.581222
 42
0.056273
  0
VERTEX
  8
0
 10
111.222985
 20
166.118309
 42
0.055934
  0
VERTEX
  8
0
 10
130.543639
 20
142.298572
 42
0.056170
  0
VERTEX
  8
0
 10
154.579141
 20
123.438109
 42
0.057698
  0
VERTEX
  8
0
 10
182.000000
 20
110.600990
 42
0.018158
  0
VERTEX
  8
0
 10
192.672632
 20
107.459484
 42
0.024483
  0
VERTEX
  8
0
 10
202.535554
 20
105.449907
 42
0.023405
  0
VERTEX
  8
0
 10
212.887775
 20
104.356375
 42
0.014611
  0
VERTEX
  8
0
 10
225.080226
 20
104.000000
 42
0.045752
  0
VERTEX
  8
0
 10
252.115594
 20
106.479038
 42
0.052371
  0
VERTEX
  8
0
 10
276.993618
 20
113.835991
 42
0.052493
  0
VERTEX
  8
0
 10
299.752395
 20
126.182487
 42
0.046328
  0
VERTEX
  8
0
 10
320.500000
 20
143.465261
 42
0.044832
  0
VERTEX
  8
0
 10
336.747383
 20
162.989030
 42
0.048439
  0
VERTEX
  8
0
 10
348.778197
 20
184.616244
 42
0.048346
  0
VERTEX
  8
0
 10
356.440457
 20
208.192373
 42
0.044346
  0
VERTEX
  8
0
 10
359.722914
 20
233.500000
 42
0.106349
  0
VERTEX
  8
0
 10
350.086205
 20
289.121223
 42
0.106405
  0
VERTEX
  8
0
 10
318.429474
 20
335.846813
 42
0.106085
  0
VERTEX
  8
0
 10
270.260774
 20
365.507850
 42
0.105121
  0
SEQEND
  0
POLYLINE
  8
0
 66
1
 70
1
  0
VERTEX
  8
0
 10
312.000000
 20
278.920825
 42
0.000000
  0
VERTEX
  8
0
 10
312.500000
 20
270.500000
 42
0.000000
  0
VERTEX
  8
0
 10
314.390531
 20
275.500000
 42
-0.015713
  0
VERTEX
  8
0
 10
316.514948
 20
280.625661
 42
-0.126654
  0
VERTEX
  8
0
 10
318.097423
 20
282.597422
 42
-0.328614
  0
VERTEX
  8
0
 10
319.644768
 20
282.609074
 42
-0.092913
  0
VERTEX
  8
0
 10
321.404795
 20
280.750000
 42
-0.085248
  0
VERTEX
  8
0
 10
322.085065
 20
279.152863
 42
-0.080465
  0
VERTEX
  8
0
 10
322.212416
 20
277.386940
 42
-0.038653
  0
VERTEX
  8
0
 10
321.770914
 20
274.749498
 42
-0.005669
  0
VERTEX
  8
0
 10
320.405508
 20
269.500000
 42
0.001541
  0
VERTEX
  8
0
 10
317.566270
 20
258.942656
 42
0.025604
  0
VERTEX
  8
0
 10
316.813857
 20
255.385332
 42
0.189240
  0
VERTEX
  8
0
 10
317.078229
 20
254.185148
 42
0.385370
  0
VERTEX
  8
0
 10
317.943149
 20
253.969574
 42
0.134108
  0
VERTEX
  8
0
 10
320.012337
 20
255.928465
 42
0.018720
  0
VERTEX
  8
0
 10
322.911556
 20
261.127277
 42
0.021532
  0
VERTEX
  8
0
 10
325.754828
 20
267.356130
 42
0.023015
  0
VERTEX
  8
0
 10
327.982589
 20
273.671203
 42
-0.016041
  0
VERTEX
  8
0
 10
328.930004
 20
276.481140
 42
-0.022286
  0
VERTEX
  8
0
 10
329.968792
 20
278.925559
 42
-0.020428
  0
VERTEX
  8
0
 10
330.972510
 20
280.819838
 42
-0.170700
  0
VERTEX
  8
0
 10
331.700216
 20
281.438456
 42
-0.145471
  0
VERTEX
  8
0
 10
333.112937
 20
281.548152
 42
-0.107360
  0
VERTEX
  8
0
 10
334.549712
 20
280.897336
 42
-0.104268
  0
VERTEX
  8
0
 10
335.618490
 20
279.688033
 42
-0.129722
  0
VERTEX
  8
0
 10
336.000000
 20
278.242282
 42
-0.077617
  0
VERTEX
  8
0
 10
335.430149
 20
274.593486
 42
-0.003687
  0
VERTEX
  8
0
 10
331.553014
 20
262.784047
 42
-0.004604
  0
VERTEX
  8
0
 10
327.550720
 20
251.242700
 42
-0.054905
  0
VERTEX
  8
0
 10
325.487068
 20
247.000000
 42
-0.060783
  0
VERTEX
  8
0
 10
320.677175
 20
241.098337
 42
-0.037682
  0
VERTEX
  8
0
 10
313.774264
 20
235.398480
 42
-0.032204
  0
VERTEX
  8
0
 10
304.877311
 20
229.937441
 42
-0.021043
  0
VERTEX
  8
0
 10
294.000000
 20
224.762739
 42
-0.012719
  0
VERTEX
  8
0
 10
282.756437
 20
220.317079
 42
-0.056135
  0
VERTEX
  8
0
 10
275.846065
 20
218.633744
 42
-0.069645
  0
VERTEX
  8
0
 10
269.470724
 20
218.712020
 42
-0.026341
  0
VERTEX
  8
0
 10
260.726050
 20
220.521222
 42
0.010523
  0
VERTEX
  8
0
 10
257.120000
 20
221.387027
 42
0.037787
  0
VERTEX
  8
0
 10
254.777022
 20
221.714941
 42
0.058123
  0
VERTEX
  8
0
 10
252.998583
 20
221.621306
 42
0.064793
  0
VERTEX
  8
0
 10
251.357560
 20
221.117054
 42
0.038701
  0
VERTEX
  8
0
 10
249.959631
 20
220.344462
 42
0.147558
  0
VERTEX
  8
0
 10
249.328199
 20
219.587981
 42
0.129469
  0
VERTEX
  8
0
 10
249.176452
 20
218.549041
 42
0.027018
  0
VERTEX
  8
0
 10
249.484250
 20
216.717451
 42
-0.007135
  0
VERTEX
  8
0
 10
250.823446
 20
210.316633
 42
-0.029550
  0
VERTEX
  8
0
 10
251.346684
 20
206.402635
 42
-0.038019
  0
VERTEX
  8
0
 10
251.339131
 20
202.951045
 42
-0.017698
  0
VERTEX
  8
0
 10
250.831388
 20
198.500000
 42
-0.035988
  0
VERTEX
  8
0
 10
248.969632
 20
190.210206
 42
-0.023003
  0
VERTEX
  8
0
 10
245.686002
 20
180.893790
 42
-0.023132
  0
VERTEX
  8
0
 10
241.626552
 20
172.068369
 42
-0.041587
  0
VERTEX
  8
0
 10
237.392555
 20
165.322508
 42
-0.039901
  0
VERTEX
  8
0
 10
235.916164
 20
163.650630
 42
-0.076302
  0
VERTEX
  8
0
 10
234.456987
 20
162.619136
 42
-0.063793
  0
VERTEX
  8
0
 10
232.583483
 20
161.965623
 42
-0.020981
  0
VERTEX
  8
0
 10
229.698925
 20
161.481587
 42
-0.024082
  0
VERTEX
  8
0
 10
227.338060
 20
161.301476
 42
-0.018452
  0
VERTEX
  8
0
 10
224.749720
 20
161.324545
 42
-0.018826
  0
VERTEX
  8
0
 10
222.286920
 20
161.530569
 42
-0.035496
  0
VERTEX
  8
0
 10
220.330171
 20
161.911094
 42
-0.039806
  0
VERTEX
  8
0
 10
217.968886
 20
162.753288
 42
-0.098645
  0
VERTEX
  8
0
 10
216.479557
 20
163.813895
 42
-0.070190
  0
VERTEX
  8
0
 10
215.229241
 20
165.583278
 42
-0.013297
  0
VERTEX
  8
0
 10
213.512258
 20
169.152034
 42
-0.039827
  0
VERTEX
  8
0
 10
210.900586
 20
176.483302
 42
-0.015521
  0
VERTEX
  8
0
 10
208.429809
 20
186.961614
 42
-0.015660
  0
VERTEX
  8
0
 10
206.592469
 20
197.715947
 42
-0.034140
  0
VERTEX
  8
0
 10
206.010505
 20
206.058870
 42
0.027500
  0
VERTEX
  8
0
 10
205.602793
 20
213.283108
 42
0.218552
  0
VERTEX
  8
0
 10
203.921565
 20
216.077033
 42
0.141927
  0
VERTEX
  8
0
 10
200.274393
 20
217.272677
 42
0.009805
  0
VERTEX
  8
0
 10
189.331668
 20
217.439091
 42
0.004875
  0
VERTEX
  8
0
 10
183.445166
 20
217.355777
 42
0.004068
  0
VERTEX
  8
0
 10
177.194870
 20
217.155467
 42
0.004106
  0
VERTEX
  8
0
 10
171.478978
 20
216.878684
 42
0.011164
  0
VERTEX
  8
0
 10
167.438101
 20
216.559091
 42
-0.009933
  0
VERTEX
  8
0
 10
162.810823
 20
216.181653
 42
-0.039526
  0
VERTEX
  8
0
 10
159.964742
 20
216.231429
 42
-0.052394
  0
VERTEX
  8
0
 10
157.578446
 20
216.718115
 42
-0.027654
  0
VERTEX
  8
0
 10
154.747403
 20
217.787537
 42
-0.037753
  0
VERTEX
  8
0
 10
152.665260
 20
218.903326
 42
-0.019000
  0
VERTEX
  8
0
 10
150.212457
 20
220.600923
 42
-0.018753
  0
VERTEX
  8
0
 10
147.797271
 20
222.557612
 42
-0.026381
  0
VERTEX
  8
0
 10
145.809302
 20
224.489755
 42
0.004251
  0
VERTEX
  8
0
 10
143.604381
 20
226.831144
 42
0.001466
  0
VERTEX
  8
0
 10
140.378307
 20
230.179347
 42
0.001456
  0
VERTEX
  8
0
 10
136.799932
 20
233.850012
 42
0.001689
  0
VERTEX
  8
0
 10
133.372169
 20
237.322218
 42
-0.024361
  0
VERTEX
  8
0
 10
127.230055
 20
244.135717
 42
-0.015335
  0
VERTEX
  8
0
 10
120.707201
 20
252.640975
 42
-0.009954
  0
VERTEX
  8
0
 10
115.003936
 20
260.912162
 42
-0.146985
  0
VERTEX
  8
0
 10
114.000000
 20
264.253477
 42
-0.101320
  0
VERTEX
  8
0
 10
114.130215
 20
264.889477
 42
-0.066807
  0
VERTEX
  8
0
 10
114.513566
 20
265.532911
 42
-0.063364
  0
VERTEX
  8
0
 10
115.079923
 20
266.085955
 42
-0.070250
  0
VERTEX
  8
0
 10
115.748309
 20
266.456912
 42
-0.198549
  0
VERTEX
  8
0
 10
117.231142
 20
266.418954
 42
-0.090034
  0
VERTEX
  8
0
 10
118.866466
 20
265.306938
 42
-0.027298
  0
VERTEX
  8
0
 10
121.430639
 20
262.495633
 42
-0.002096
  0
VERTEX
  8
0
 10
127.873409
 20
254.539544
 42
0.033308
  0
VERTEX
  8
0
 10
132.907007
 20
249.060841
 42
0.644479
  0
VERTEX
  8
0
 10
134.509245
 20
249.707951
 42
0.123410
  0
VERTEX
  8
0
 10
133.540526
 20
254.400076
 42
0.012485
  0
VERTEX
  8
0
 10
128.296772
 20
264.618059
 42
-0.023764
  0
VERTEX
  8
0
 10
126.155828
 20
269.032172
 42
-0.113566
  0
VERTEX
  8
0
 10
125.663466
 20
271.770345
 42
-0.211588
  0
VERTEX
  8
0
 10
126.548704
 20
273.533634
 42
-0.111101
  0
VERTEX
  8
0
 10
128.781679
 20
274.660053
 42
-0.056101
  0
VERTEX
  8
0
 10
130.141087
 20
274.843063
 42
-0.101410
  0
VERTEX
  8
0
 10
131.241668
 20
274.642343
 42
-0.088829
  0
VERTEX
  8
0
 10
132.269633
 20
273.998267
 42
-0.035548
  0
VERTEX
  8
0
 10
133.421378
 20
272.793307
 42
-0.000699
  0
VERTEX
  8
0
 10
134.476398
 20
271.515941
 42
-0.000238
  0
VERTEX
  8
0
 10
136.005588
 20
269.657394
 42
-0.000237
  0
VERTEX
  8
0
 10
137.692589
 20
267.603074
 42
-0.000272
  0
VERTEX
  8
0
 10
139.299772
 20
265.641886
 42
0.020446
  0
VERTEX
  8
0
 10
141.059053
 20
263.663548
 42
0.036259
  0
VERTEX
  8
0
 10
142.683588
 20
262.208064
 42
0.045103
  0
VERTEX
  8
0
 10
144.123993
 20
261.289000
 42
0.120444
  0
VERTEX
  8
0
 10
145.299772
 20
261.003686
 42
0.105695
  0
VERTEX
  8
0
 10
146.688211
 20
261.302938
 42
0.007136
  0
VERTEX
  8
0
 10
150.378683
 20
263.027568
 42
0.009991
  0
VERTEX
  8
0
 10
154.743155
 20
265.252348
 42
0.007311
  0
VERTEX
  8
0
 10
159.500000
 20
267.888319
 42
-0.005258
  0
VERTEX
  8
0
 10
165.677075
 20
271.344532
 42
-0.023608
  0
VERTEX
  8
0
 10
169.401592
 20
273.154727
 42
-0.039393
  0
VERTEX
  8
0
 10
171.860386
 20
273.987183
 42
-0.185045
  0
VERTEX
  8
0
 10
173.315688
 20
273.814293
 42
-0.135188
  0
VERTEX
  8
0
 10
174.934529
 20
272.297265
 42
-0.027429
  0
VERTEX
  8
0
 10
176.818809
 20
268.800570
 42
-0.028894
  0
VERTEX
  8
0
 10
178.493963
 20
264.626464
 42
-0.034620
  0
VERTEX
  8
0
 10
179.560442
 20
260.529510
 42
0.034901
  0
VERTEX
  8
0
 10
180.180712
 20
258.152169
 42
0.086098
  0
VERTEX
  8
0
 10
181.037028
 20
256.572572
 42
0.461196
  0
VERTEX
  8
0
 10
181.651770
 20
256.549195
 42
0.188318
  0
VERTEX
  8
0
 10
182.000000
 20
257.440983
 42
-0.121190
  0
VERTEX
  8
0
 10
182.150115
 20
258.051226
 42
-0.106973
  0
VERTEX
  8
0
 10
182.570715
 20
258.555123
 42
-0.093907
  0
VERTEX
  8
0
 10
183.214978
 20
258.886332
 42
-0.072022
  0
VERTEX
  8
0
 10
184.000000
 20
259.000000
 42
-0.218517
  0
VERTEX
  8
0
 10
185.104087
 20
258.493281
 42
-0.138781
  0
VERTEX
  8
0
 10
185.710000
 20
257.187500
 42
-0.036854
  0
VERTEX
  8
0
 10
185.955897
 20
254.300928
 42
-0.002827
  0
VERTEX
  8
0
 10
186.000000
 20
246.500000
 42
0.002819
  0
VERTEX
  8
0
 10
186.044034
 20
238.690978
 42
0.036959
  0
VERTEX
  8
0
 10
186.290100
 20
235.808588
 42
0.139562
  0
VERTEX
  8
0
 10
186.897620
 20
234.505923
 42
0.217611
  0
VERTEX
  8
0
 10
188.005019
 20
234.000000
 42
0.180461
  0
VERTEX
  8
0
 10
189.086998
 20
234.403655
 42
0.182611
  0
VERTEX
  8
0
 10
189.633556
 20
235.415158
 42
0.046616
  0
VERTEX
  8
0
 10
189.726588
 20
237.683399
 42
0.003317
  0
VERTEX
  8
0
 10
189.354700
 20
244.000000
 42
0.000000
  0
VERTEX
  8
0
 10
188.699361
 20
254.000000
 42
0.000000
  0
VERTEX
  8
0
 10
191.223954
 20
254.000000
 42
-0.040145
  0
VERTEX
  8
0
 10
192.483531
 20
253.898704
 42
-0.014341
  0
VERTEX
  8
0
 10
194.255812
 20
253.559375
 42
-0.014122
  0
VERTEX
  8
0
 10
196.187130
 20
253.074248
 42
-0.016213
  0
VERTEX
  8
0
 10
198.000000
 20
252.500000
 42
0.002016
  0
VERTEX
  8
0
 10
199.650536
 20
251.925131
 42
0.003072
  0
VERTEX
  8
0
 10
201.088573
 20
251.440625
 42
0.001117
  0
VERTEX
  8
0
 10
202.329814
 20
251.033973
 42
0.078753
  0
VERTEX
  8
0
 10
202.544167
 20
251.000000
 42
0.240565
  0
VERTEX
  8
0
 10
202.716255
 20
251.087883
 42
0.003659
  0
VERTEX
  8
0
 10
203.386312
 20
252.028125
 42
0.008907
  0
VERTEX
  8
0
 10
204.149720
 20
253.158418
 42
0.005660
  0
VERTEX
  8
0
 10
205.000000
 20
254.500000
 42
-0.066093
  0
VERTEX
  8
0
 10
206.789178
 20
256.687494
 42
-0.109806
  0
VERTEX
  8
0
 10
208.830324
 20
257.895804
 42
-0.224784
  0
VERTEX
  8
0
 10
210.317256
 20
257.706766
 42
-0.255908
  0
VERTEX
  8
0
 10
211.000000
 20
256.460162
 42
-0.073563
  0
VERTEX
  8
0
 10
210.875511
 20
255.618601
 42
-0.015003
  0
VERTEX
  8
0
 10
210.395243
 20
254.187230
 42
-0.015506
  0
VERTEX
  8
0
 10
209.729367
 20
252.542760
 42
-0.014000
  0
VERTEX
  8
0
 10
208.941253
 20
250.884847
 42
0.000000
  0
VERTEX
  8
0
 10
206.882506
 20
246.849369
 42
0.000000
  0
VERTEX
  8
0
 10
210.545032
 20
242.379739
 42
0.019911
  0
VERTEX
  8
0
 10
214.450918
 20
237.982496
 42
0.093868
  0
VERTEX
  8
0
 10
217.190916
 20
236.036700
 42
0.120547
  0
VERTEX
  8
0
 10
220.100807
 20
235.475929
 42
0.042677
  0
VERTEX
  8
0
 10
224.334462
 20
236.050368
 42
-0.034058
  0
VERTEX
  8
0
 10
228.528745
 20
236.693169
 42
-0.047050
  0
VERTEX
  8
0
 10
232.334691
 20
236.654931
 42
-0.049612
  0
VERTEX
  8
0
 10
235.906604
 20
235.918892
 42
-0.044666
  0
VERTEX
  8
0
 10
239.398474
 20
234.476868
 42
0.022892
  0
VERTEX
  8
0
 10
241.089144
 20
233.690968
 42
0.095448
  0
VERTEX
  8
0
 10
242.185239
 20
233.469879
 42
0.111088
  0
VERTEX
  8
0
 10
243.197365
 20
233.688309
 42
0.036571
  0
VERTEX
  8
0
 10
244.536693
 20
234.432085
 42
0.136853
  0
VERTEX
  8
0
 10
246.655157
 20
236.853628
 42
0.058581
  0
VERTEX
  8
0
 10
248.059180
 20
240.956762
 42
0.055356
  0
VERTEX
  8
0
 10
248.541219
 20
245.663151
 42
0.070759
  0
VERTEX
  8
0
 10
247.891402
 20
249.968131
 42
-0.012694
  0
VERTEX
  8
0
 10
247.265210
 20
252.269088
 42
-0.068840
  0
VERTEX
  8
0
 10
247.132709
 20
253.552719
 42
-0.133856
  0
VERTEX
  8
0
 10
247.395337
 20
254.399526
 42
-0.109005
  0
VERTEX
  8
0
 10
248.068163
 20
255.074214
 42
-0.122057
  0
VERTEX
  8
0
 10
248.845635
 20
255.337667
 42
-0.128362
  0
VERTEX
  8
0
 10
249.640290
 20
255.200010
 42
-0.084948
  0
VERTEX
  8
0
 10
250.511455
 20
254.608680
 42
-0.030075
  0
VERTEX
  8
0
 10
251.536744
 20
253.496642
 42
0.015522
  0
VERTEX
  8
0
 10
252.818587
 20
252.022518
 42
0.154003
  0
VERTEX
  8
0
 10
253.522095
 20
251.621201
 42
0.218076
  0
VERTEX
  8
0
 10
254.204845
 20
251.771460
 42
0.034850
  0
VERTEX
  8
0
 10
255.262934
 20
252.691506
 42
-0.108193
  0
VERTEX
  8
0
 10
256.680340
 20
253.599719
 42
-0.317843
  0
VERTEX
  8
0
 10
257.740085
 20
253.316455
 42
-0.086126
  0
VERTEX
  8
0
 10
258.763023
 20
251.539309
 42
-0.006459
  0
VERTEX
  8
0
 10
260.616061
 20
246.259639
 42
0.009690
  0
VERTEX
  8
0
 10
261.545919
 20
243.664083
 42
0.014320
  0
VERTEX
  8
0
 10
262.469999
 20
241.428884
 42
0.009450
  0
VERTEX
  8
0
 10
263.316170
 20
239.629454
 42
0.200261
  0
VERTEX
  8
0
 10
263.752265
 20
239.249245
 42
0.436256
  0
VERTEX
  8
0
 10
264.140809
 20
239.462003
 42
0.008614
  0
VERTEX
  8
0
 10
264.714443
 20
241.913518
 42
0.014710
  0
VERTEX
  8
0
 10
265.286795
 20
245.002505
 42
0.008621
  0
VERTEX
  8
0
 10
265.798808
 20
248.728762
 42
-0.008643
  0
VERTEX
  8
0
 10
266.898639
 20
256.730256
 42
-0.028610
  0
VERTEX
  8
0
 10
268.012447
 20
261.928177
 42
-0.042236
  0
VERTEX
  8
0
 10
269.194395
 20
265.139057
 42
-0.291255
  0
VERTEX
  8
0
 10
270.547004
 20
266.000000
 42
-0.256900
  0
VERTEX
  8
0
 10
271.258121
 20
265.608810
 42
-0.088833
  0
VERTEX
  8
0
 10
271.716708
 20
264.485987
 42
-0.040822
  0
VERTEX
  8
0
 10
271.985260
 20
262.414883
 42
-0.008512
  0
VERTEX
  8
0
 10
272.096426
 20
258.750000
 42
0.012359
  0
VERTEX
  8
0
 10
272.217282
 20
255.572484
 42
0.008749
  0
VERTEX
  8
0
 10
272.503389
 20
252.014062
 42
0.008837
  0
VERTEX
  8
0
 10
272.896577
 20
248.622056
 42
0.018419
  0
VERTEX
  8
0
 10
273.346426
 20
246.000000
 42
0.013610
  0
VERTEX
  8
0
 10
274.024869
 20
243.153302
 42
0.063684
  0
VERTEX
  8
0
 10
274.661534
 20
241.597262
 42
0.125458
  0
VERTEX
  8
0
 10
275.432910
 20
240.794052
 42
0.139903
  0
VERTEX
  8
0
 10
276.463257
 20
240.500000
 42
0.165232
  0
VERTEX
  8
0
 10
277.534486
 20
240.863939
 42
0.112979
  0
VERTEX
  8
0
 10
278.360241
 20
241.862852
 42
0.051349
  0
VERTEX
  8
0
 10
279.107604
 20
243.829458
 42
0.009332
  0
VERTEX
  8
0
 10
280.043425
 20
247.622347
 42
-0.047556
  0
VERTEX
  8
0
 10
282.927313
 20
256.375258
 42
-0.079887
  0
VERTEX
  8
0
 10
287.112035
 20
262.864624
 42
-0.090629
  0
VERTEX
  8
0
 10
292.691380
 20
267.175541
 42
-0.079575
  0
VERTEX
  8
0
 10
299.692432
 20
269.482140
 42
0.049762
  0
VERTEX
  8
0
 10
303.104279
 20
270.385716
 42
0.147731
  0
VERTEX
  8
0
 10
305.008096
 20
271.838044
 42
0.112488
  0
VERTEX
  8
0
 10
306.081687
 20
274.365021
 42
0.022953
  0
VERTEX
  8
0
 10
306.724392
 20
279.212642
 42
-0.013143
  0
VERTEX
  8
0
 10
307.006230
 20
281.714009
 42
-0.016141
  0
VERTEX
  8
0
 10
307.405618
 20
284.030059
 42
-0.014651
  0
VERTEX
  8
0
 10
307.856254
 20
285.934573
 42
-0.102498
  0
VERTEX
  8
0
 10
308.283037
 20
286.783305
 42
-0.196615
  0
VERTEX
  8
0
 10
309.647705
 20
287.550795
 42
-0.323977
  0
VERTEX
  8
0
 10
310.756597
 20
286.941292
 42
-0.081521
  0
VERTEX
  8
0
 10
311.532641
 20
284.231575
 42
-0.014236
  0
SEQEND
  0
POLYLINE
  8
0
 66
1
 70
1
  0
VERTEX
  8
0
 10
15.374286
 20
336.532989
 42
0.036502
  0
VERTEX
  8
0
 10
15.184216
 20
335.903949
 42
0.032269
  0
VERTEX
  8
0
 10
15.077853
 20
335.227442
 42
0.033690
  0
VERTEX
  8
0
 10
15.062835
 20
334.603847
 42
0.079116
  0
VERTEX
  8
0
 10
15.155670
 20
334.148631
 42
0.134267
  0
VERTEX
  8
0
 10
17.042436
 20
331.539114
 42
0.000714
  0
VERTEX
  8
0
 10
41.711981
 20
311.735702
 42
0.000484
  0
VERTEX
  8
0
 10
66.795137
 20
291.698922
 42
0.218718
  0
VERTEX
  8
0
 10
68.815206
 20
291.199449
 42
0.106127
  0
VERTEX
  8
0
 10
69.482128
 20
291.481201
 42
0.069548
  0
VERTEX
  8
0
 10
70.094754
 20
292.051987
 42
0.065284
  0
VERTEX
  8
0
 10
70.562591
 20
292.812514
 42
0.069813
  0
VERTEX
  8
0
 10
70.805234
 20
293.650965
 42
0.234344
  0
VERTEX
  8
0
 10
70.221677
 20
295.423282
 42
0.013217
  0
VERTEX
  8
0
 10
65.933293
 20
299.547621
 42
0.011275
  0
VERTEX
  8
0
 10
58.787644
 20
305.775995
 42
0.002084
  0
VERTEX
  8
0
 10
45.326221
 20
316.890750
 42
0.003203
  0
VERTEX
  8
0
 10
35.312869
 20
324.981987
 42
0.005016
  0
VERTEX
  8
0
 10
26.586650
 20
331.799158
 42
0.001577
  0
VERTEX
  8
0
 10
18.974329
 20
337.586126
 42
0.163137
  0
VERTEX
  8
0
 10
17.739602
 20
338.000000
 42
0.074569
  0
VERTEX
  8
0
 10
17.008506
 20
337.890356
 42
0.064446
  0
VERTEX
  8
0
 10
16.301312
 20
337.569066
 42
0.066855
  0
VERTEX
  8
0
 10
15.723998
 20
337.093883
 42
0.095845
  0
SEQEND
  0
POLYLINE
  8
0
 66
1
 70
1
  0
VERTEX
  8
0
 10
334.556826
 20
132.513522
 42
0.002056
  0
VERTEX
  8
0
 10
323.948182
 20
121.526419
 42
0.003375
  0
VERTEX
  8
0
 10
315.069984
 20
112.129319
 42
0.000507
  0
VERTEX
  8
0
 10
307.289139
 20
103.764535
 42
0.283710
  0
VERTEX
  8
0
 10
307.162159
 20
103.122782
 42
0.106528
  0
VERTEX
  8
0
 10
307.545763
 20
102.524053
 42
0.001378
  0
VERTEX
  8
0
 10
310.717619
 20
99.348524
 42
0.003922
  0
VERTEX
  8
0
 10
314.439429
 20
95.700571
 42
0.002554
  0
VERTEX
  8
0
 10
318.791438
 20
91.544057
 42
0.014490
  0
VERTEX
  8
0
 10
327.580496
 20
83.704829
 42
0.045330
  0
VERTEX
  8
0
 10
334.071844
 20
79.179855
 42
0.065115
  0
VERTEX
  8
0
 10
339.830762
 20
76.825281
 42
0.065164
  0
VERTEX
  8
0
 10
346.000000
 20
76.031731
 42
0.026159
  0
VERTEX
  8
0
 10
348.455302
 20
76.165732
 42
0.020971
  0
VERTEX
  8
0
 10
351.073732
 20
76.558158
 42
0.021490
  0
VERTEX
  8
0
 10
353.535594
 20
77.144131
 42
0.037697
  0
VERTEX
  8
0
 10
355.500000
 20
77.865662
 42
0.061856
  0
VERTEX
  8
0
 10
358.964172
 20
79.993949
 42
0.029786
  0
VERTEX
  8
0
 10
362.839616
 20
83.490379
 42
0.029630
  0
VERTEX
  8
0
 10
366.215578
 20
87.355324
 42
0.073986
  0
VERTEX
  8
0
 10
368.044627
 20
90.617377
 42
0.062268
  0
VERTEX
  8
0
 10
368.794697
 20
93.696497
 42
0.037544
  0
VERTEX
  8
0
 10
368.943332
 20
97.455930
 42
0.037111
  0
VERTEX
  8
0
 10
368.522875
 20
101.272423
 42
0.053016
  0
VERTEX
  8
0
 10
367.549823
 20
104.534998
 42
0.000000
  0
VERTEX
  8
0
 10
366.099647
 20
108.005760
 42
0.000000
  0
VERTEX
  8
0
 10
371.299823
 20
107.434797
 42
0.068172
  0
VERTEX
  8
0
 10
376.020444
 20
107.561221
 42
0.067460
  0
VERTEX
  8
0
 10
380.551213
 20
108.950970
 42
0.064144
  0
VERTEX
  8
0
 10
384.737496
 20
111.578209
 42
0.052644
  0
VERTEX
  8
0
 10
388.442034
 20
115.345206
 42
0.026435
  0
VERTEX
  8
0
 10
390.034217
 20
117.580209
 42
0.061444
  0
VERTEX
  8
0
 10
390.915274
 20
119.435311
 42
0.059735
  0
VERTEX
  8
0
 10
391.332809
 20
121.481044
 42
0.023844
  0
VERTEX
  8
0
 10
391.431165
 20
124.345206
 42
0.028220
  0
VERTEX
  8
0
 10
391.273732
 20
126.597741
 42
0.021896
  0
VERTEX
  8
0
 10
390.857866
 20
129.020568
 42
0.022393
  0
VERTEX
  8
0
 10
390.261011
 20
131.277351
 42
0.043514
  0
VERTEX
  8
0
 10
389.552298
 20
133.000000
 42
0.067651
  0
VERTEX
  8
0
 10
386.907888
 20
136.764525
 42
0.003104
  0
VERTEX
  8
0
 10
376.145486
 20
148.232361
 42
0.001312
  0
VERTEX
  8
0
 10
364.638325
 20
160.278795
 42
0.204185
  0
VERTEX
  8
0
 10
362.945899
 20
161.000000
 42
0.199164
  0
VERTEX
  8
0
 10
362.494556
 20
160.812791
 42
0.000186
  0
VERTEX
  8
0
 10
354.335775
 20
152.632097
 42
0.001816
  0
VERTEX
  8
0
 10
345.236948
 20
143.435473
 42
0.001108
  0
SEQEND
  0
POLYLINE
  8
0
 66
1
 70
1
  0
VERTEX
  8
0
 10
371.805058
 20
139.633335
 42
-0.023896
  0
VERTEX
  8
0
 10
378.246635
 20
132.321490
 42
-0.121356
  0
VERTEX
  8
0
 10
380.506669
 20
127.430996
 42
-0.186215
  0
VERTEX
  8
0
 10
379.748296
 20
123.187523
 42
-0.072885
  0
VERTEX
  8
0
 10
375.894691
 20
118.523824
 42
-0.086689
  0
VERTEX
  8
0
 10
371.212816
 20
115.576993
 42
-0.159138
  0
VERTEX
  8
0
 10
366.764682
 20
115.250847
 42
-0.103556
  0
VERTEX
  8
0
 10
361.654650
 20
117.711808
 42
-0.025152
  0
VERTEX
  8
0
 10
354.484635
 20
123.818574
 42
0.000000
  0
VERTEX
  8
0
 10
347.780216
 20
130.137148
 42
0.000000
  0
VERTEX
  8
0
 10
350.113806
 20
132.818574
 42
-0.009239
  0
VERTEX
  8
0
 10
353.966288
 20
137.083537
 42
-0.005890
  0
VERTEX
  8
0
 10
358.595562
 20
141.906733
 42
-0.001388
  0
VERTEX
  8
0
 10
363.334429
 20
146.702393
 42
-0.199739
  0
VERTEX
  8
0
 10
364.049697
 20
147.000000
 42
-0.189996
  0
VERTEX
  8
0
 10
364.449981
 20
146.842199
 42
-0.002167
  0
VERTEX
  8
0
 10
366.580410
 20
144.836042
 42
-0.006272
  0
VERTEX
  8
0
 10
369.022886
 20
142.456991
 42
-0.004005
  0
SEQEND
  0
POLYLINE
  8
0
 66
1
 70
1
  0
VERTEX
  8
0
 10
356.113254
 20
108.599962
 42
-0.097906
  0
VERTEX
  8
0
 10
358.617297
 20
103.308531
 42
-0.117402
  0
VERTEX
  8
0
 10
358.689167
 20
97.812495
 42
-0.109962
  0
VERTEX
  8
0
 10
356.239733
 20
92.605558
 42
-0.077987
  0
VERTEX
  8
0
 10
351.528297
 20
88.159824
 42
-0.110708
  0
VERTEX
  8
0
 10
346.457250
 20
86.133123
 42
-0.119014
  0
VERTEX
  8
0
 10
341.148072
 20
86.543891
 42
-0.082361
  0
VERTEX
  8
0
 10
335.138906
 20
89.660717
 42
-0.030361
  0
VERTEX
  8
0
 10
327.834073
 20
95.857731
 42
0.000000
  0
VERTEX
  8
0
 10
320.500000
 20
102.887772
 42
0.000000
  0
VERTEX
  8
0
 10
330.976606
 20
113.438341
 42
0.000000
  0
VERTEX
  8
0
 10
341.453213
 20
123.988909
 42
0.000000
  0
VERTEX
  8
0
 10
347.339860
 20
118.244455
 42
-0.008110
  0
VERTEX
  8
0
 10
349.805244
 20
115.759290
 42
-0.006761
  0
VERTEX
  8
0
 10
352.345287
 20
113.041797
 42
-0.006834
  0
VERTEX
  8
0
 10
354.602516
 20
110.491274
 42
-0.018405
  0
SEQEND
  0
POLYLINE
  8
0
 66
1
 70
1
  0
VERTEX
  8
0
 10
293.003947
 20
96.750000
 42
0.195411
  0
VERTEX
  8
0
 10
293.735213
 20
94.959361
 42
0.009832
  0
VERTEX
  8
0
 10
298.328368
 20
90.438528
 42
0.010169
  0
VERTEX
  8
0
 10
305.477427
 20
83.943991
 42
0.002458
  0
VERTEX
  8
0
 10
317.574093
 20
73.500000
 42
0.003359
  0
VERTEX
  8
0
 10
333.779437
 20
59.834460
 42
0.029975
  0
VERTEX
  8
0
 10
341.285595
 20
54.316328
 42
0.137610
  0
VERTEX
  8
0
 10
344.867100
 20
53.206504
 42
0.422141
  0
VERTEX
  8
0
 10
346.500000
 20
54.795917
 42
0.194423
  0
VERTEX
  8
0
 10
345.757575
 20
56.633048
 42
0.010916
  0
VERTEX
  8
0
 10
341.301570
 20
61.048753
 42
0.010525
  0
VERTEX
  8
0
 10
334.236553
 20
67.473577
 42
0.002401
  0
VERTEX
  8
0
 10
322.000000
 20
78.036560
 42
0.003428
  0
VERTEX
  8
0
 10
305.807768
 20
91.688081
 42
0.030133
  0
VERTEX
  8
0
 10
298.255986
 20
97.233235
 42
0.137336
  0
VERTEX
  8
0
 10
294.645802
 20
98.350613
 42
0.422717
  0
SEQEND
  0
ENDSEC
  0
EOF
